<?xml version="1.0" encoding="UTF-8"?>
<svg id="Camada_1" data-name="Camada 1" xmlns="http://www.w3.org/2000/svg" xmlns:xlink="http://www.w3.org/1999/xlink" viewBox="0 0 1080 1080">
  <defs>
    <style>
      .cls-1 {
        fill: url(#Gradiente_sem_nome_257);
      }
    </style>
    <linearGradient id="Gradiente_sem_nome_257" data-name="Gradiente sem nome 257" x1="240.19" y1="346.18" x2="831.85" y2="740.61" gradientUnits="userSpaceOnUse">
      <stop offset="0" stop-color="#00b35c"/>
      <stop offset=".11" stop-color="#05a85a"/>
      <stop offset=".31" stop-color="#138b56"/>
      <stop offset=".57" stop-color="#2b5c50"/>
      <stop offset=".88" stop-color="#4b1b47"/>
      <stop offset="1" stop-color="#5a0044"/>
    </linearGradient>
  </defs>
  <path class="cls-1" d="M866.33,553.31c-15.7-20.13-36.72-34.75-63.08-43.86-17.35-5.99-35.89-10.01-55.62-12.06l76.43-115.54h47.48v-71.77l.12-.18h-79.8l-.04.06h-287.9c-1.02-.02-2.05-.02-3.08-.02h-128.46c-12.37,0-24.17,1.32-35.4,3.96-11.23,2.64-21.89,7.19-31.97,13.66-4.98,3.19-9.82,6.97-14.52,11.34l-19.32-28.99h-81.03v460.16l80.62.04v-280.77c0-17.63,2.44-33.4,7.32-47.31l170.48,256.15h-97.84v71.89h365.2c31.87,0,60.98-4.37,87.34-13.12,26.36-8.74,47.39-23.12,63.08-43.13,15.69-20,23.54-46.67,23.54-79.98s-7.85-60.39-23.54-80.52ZM668.97,495.8h-8.26c0-36.18-6.56-74.17-19.7-101.02-2.19-4.48-4.53-8.78-7.03-12.93h110.32l-75.33,113.94ZM405.69,438.65c0-18.45,7.49-32.53,22.47-42.23,14.97-9.71,34.8-14.56,59.49-14.56h14.93c34.5.32,59.71,10.2,75.62,29.64,16.17,19.77,26.9,52.19,26.9,84.3h-117.45c-24.69,0-44.52-4.91-59.49-14.74-14.98-9.82-22.47-23.96-22.47-42.41ZM341,384.96c-2.54,6.42-4.54,13.33-6.01,20.73l-10.44-15.66c5.09-2.09,10.57-3.78,16.44-5.07ZM516.72,680.72c-3.9-7.07-8.21-14.32-12.94-21.75l-63.11-94.71c17.48,3.48,36.25,5.22,56.32,5.22h123.26l-59.16,89.49c-4.73,7.19-8.99,14.38-12.79,21.57-3.48,6.58-6.35,12.46-8.62,17.63h-14.31c-2.2-5.16-5.08-10.98-8.65-17.45ZM789.95,683.25c-17.49,9.95-39.78,14.92-66.86,14.92h-108.28l85.13-128.68h23.15c27.08,0,49.36,4.98,66.86,14.91,17.49,9.95,26.24,26.42,26.24,49.43s-8.75,39.48-26.24,49.42Z"/>
</svg>